<svg xmlns="http://www.w3.org/2000/svg" width="296" height="40" viewBox="0 0 296 40"><defs><style>.a{fill:#fff;}</style></defs><path class="a" d="M154.525,36.461A14.423,14.423,0,0,0,152.344,35a22.183,22.183,0,0,0-3.311-1.421,50.751,50.751,0,0,0-9.66-2.042c-3.7-.466-7.829-.755-11.919-1.088-8.218-.6-16.671-1.088-23.643-1.532-6.972-.422-12.5-.821-14.957-1-2.454-.2-7.985-.577-14.918-1.287-3.467-.377-7.284-.777-11.218-1.332-3.934-.533-8.024-1.176-11.958-2a96.633,96.633,0,0,1-11.179-2.952c-1.714-.577-3.311-1.176-4.791-1.82s-2.8-1.287-4.012-1.953a33.572,33.572,0,0,1-5.375-3.64c-1.246-1.043-1.947-1.82-2.3-2.153a10.129,10.129,0,0,1-2.96-4.639,1.905,1.905,0,0,1,.117-1.287,1,1,0,0,1,.935-.422,3.58,3.58,0,0,1,1.052.044,2.192,2.192,0,0,1,.818.311,4.014,4.014,0,0,1,.351.289c.039.067.078.111.117.178a2.023,2.023,0,0,1,.117.222,34.42,34.42,0,0,1,1.091,3.6,5.859,5.859,0,0,0,.351.622,3.93,3.93,0,0,0,.389.533c.156.2.351.422.545.666a22.132,22.132,0,0,0,4.284,3.6c.506.355,1.052.666,1.636,1.021.584.333,1.207.688,1.87,1.021a46.1,46.1,0,0,0,4.4,1.976,77.512,77.512,0,0,0,10.867,3.285A214.333,214.333,0,0,0,72.925,25.54c7.284.8,13.243,1.2,16.047,1.4,2.8.222,8.764.622,16.164,1.065s16.281.91,24.85,1.532c4.284.311,8.53.622,12.464,1.2a53.487,53.487,0,0,1,5.531,1.11,32.962,32.962,0,0,1,4.6,1.532,19.376,19.376,0,0,1,3.311,1.82c.467.311.818.622,1.168.888a5.064,5.064,0,0,1,.467.422,4.3,4.3,0,0,1,.428.4c.234.266.467.511.623.733a7.056,7.056,0,0,0,.467.6,7.955,7.955,0,0,0,.467.666,4.7,4.7,0,0,1,.974,1.731l.039-.022c.273-.111.584-.244.9-.355s.623-.244.935-.355.662-.2,1.013-.311c.351-.089,1.441-.577,3.272-1.243l.7-.266c.234-.089.506-.178.779-.266.545-.178,1.13-.377,1.753-.577,1.285-.377,2.688-.8,4.285-1.176,3.155-.8,6.933-1.554,11.062-2.2s8.608-1.154,13.2-1.576c9.153-.821,18.618-1.4,26.564-1.842s14.295-.8,17.333-.977c3-.178,9.387-.511,17.255-1.176,1.947-.178,4.012-.333,6.115-.555,1.052-.111,2.142-.2,3.233-.333s2.181-.244,3.272-.377c1.091-.111,2.22-.289,3.311-.422,1.091-.155,2.22-.289,3.35-.444,2.22-.333,4.44-.688,6.582-1.11a58.707,58.707,0,0,0,11.841-3.241,38.9,38.9,0,0,0,4.518-2.22c1.363-.777,2.571-1.532,3.661-2.264a29.6,29.6,0,0,0,4.752-3.818,7.789,7.789,0,0,0,1.519-1.909c.117-.4.234-.777.351-1.154.078-.355.156-.71.195-1.021a11.113,11.113,0,0,0,.078-1.443,1.3,1.3,0,0,1,.779-1.176,4.4,4.4,0,0,1,.623-.244c.195-.044.312-.067.312-.067a1.339,1.339,0,0,1,1.168.222,1.931,1.931,0,0,1,.506.577,2.744,2.744,0,0,1,.312.866,3.832,3.832,0,0,1-.467,2.4,11.158,11.158,0,0,1-2.3,2.841,31.62,31.62,0,0,1-2.571,2.242,50.615,50.615,0,0,1-5.726,3.84l-1.909,1.088c-.662.355-1.363.733-2.142,1.11a41.422,41.422,0,0,1-5.063,2.02,82.335,82.335,0,0,1-12.23,2.863c-2.142.355-4.323.688-6.5.954-1.091.133-2.181.266-3.233.422-1.091.133-2.142.244-3.233.355-2.1.244-4.207.422-6.232.622-2.025.178-3.973.333-5.842.511-7.439.577-13.36.888-16.008,1.065-2.649.133-8.569.466-16.008.91s-16.476.977-25.2,1.8c-4.4.377-8.686.866-12.659,1.443s-7.634,1.265-10.75,2c-1.558.355-2.96.755-4.246,1.11-.623.2-1.207.377-1.753.555-.273.089-.545.178-.818.244-.234.089-.506.178-.74.266-.467.178-.9.311-1.285.466-.39.133-.7.289-1.013.4-.584.244-1.013.422-1.285.555-2.882,1.354-4.635,2.6-6.037,3.307-1.246.777-2.22,1.065-2.882.733a1.766,1.766,0,0,1-.351-.155c-.039,0-.078-.022-.117-.022a1.112,1.112,0,0,1-.273-.089c-.389-.111-.623-.289-.662-.555a2.762,2.762,0,0,1,.156-1.021,3.951,3.951,0,0,0,.156-.733c0-.133.078-.289.078-.422a2.163,2.163,0,0,1,.039-.488,5.662,5.662,0,0,0-.662-2.353A7.068,7.068,0,0,0,154.525,36.461Z" transform="translate(-20.092 -4.411)"/></svg>